# xmcd
#
# Track frame offsets: 
#        150
#        13710
#        26230
#        36507
#        48250
#        59292
#        69665
#        81632
#        91680
#        104442
#        117157
#        130665
#        144247
#        159977
#        173810
#        189205
#        203542
#        217162
#        230902
#        244295
#        257332
#        273507
#        286770
#        300337
#
# Disc length: 4196 seconds
#
# Revision: 0
# Processed by: cddbd v1.5.2PL0 Copyright (c) Steve Scherf et al.
# Submitted via: ExactAudioCopy v0.99pb4
#
DISCID=51106218
DTITLE=Various Artist - Frankie "Half-Pint" Jaxon: Complete Recorded Works, V
DTITLE=ol. 1 (1926-1929)
DYEAR=1994
DGENRE=
TTITLE0=Frankie Jackson - Hannah Fell in Love with My Piano
TTITLE1=Farnkie Jackson - If That Don't Get It - This Sho' Will
TTITLE2=Frankie "Half-Pint" Jaxon - Can't You Wait Till You Get Home [
TTITLE2=12919]
TTITLE3=Frankie "Half-Pint" Jaxon - I'm Gonna Steal You
TTITLE4=Frankie "Half-Pint" Jaxon - Willie the Weeper
TTITLE5=Frankie "Half-Pint" Jaxon - She Got "It"
TTITLE6=Frankie "Half-Pint" Jaxon - I'm Gonna Dance wit de Guy Wot Bru
TTITLE6=ng Me
TTITLE7=Frankie "Half-Pint" Jaxon - Corinne
TTITLE8=Frankie "Half-Pint" Jaxon - Hit ta Ditty Low Down
TTITLE9=Frankie "Half-Pint" Jaxon - Down at Jasper's Bar-B-Que
TTITLE10=Frankie "Half-Pint" Jaxon - How Can I Get It?
TTITLE11=Frankie "Half-Pint" Jaxon - Fan It [take A]
TTITLE12=Frankie "Half-Pint" Jaxon - Fan It [take B]
TTITLE13=Banjo Ikey Robinson and His Bull Fiddle Band - My Four Reason
TTITLE13=s
TTITLE14=Banjo Ikey Robinson and His Bull Fiddle Band - Rock Me Mama
TTITLE15=Frankie "Half-Pint" Jaxon - Let's Knock a Jug
TTITLE16=Frankie "Half-Pint" Jaxon - Can't You Wait Till You Get Home 
TTITLE16=[C-2952]
TTITLE17=Cotton Top Mountain Sanctified Singers - She's Coming Round t
TTITLE17=he Mountain
TTITLE18=Bill Johnson's Louisiana Jug Band - Get the "L" On Down the R
TTITLE18=oad
TTITLE19=Bill Johnson's Louisiana Jug Band - Don't Drink It in Here
TTITLE20=Frankie "Half-Pint" Jaxon - It's Heated
TTITLE21=Frankie "Half-Pint" Jaxon - Jive Man Blues
TTITLE22=Frankie "Half-Pint" Jaxon - Corinne Blues
TTITLE23=Frankie "Half-Pint" Jaxon - Operation Blues
EXTD=
EXTT0=
EXTT1=
EXTT2=
EXTT3=
EXTT4=
EXTT5=
EXTT6=
EXTT7=
EXTT8=
EXTT9=
EXTT10=
EXTT11=
EXTT12=
EXTT13=
EXTT14=
EXTT15=
EXTT16=
EXTT17=
EXTT18=
EXTT19=
EXTT20=
EXTT21=
EXTT22=
EXTT23=
PLAYORDER=
